<?xml version="1.0" encoding="utf-8"?>
<!-- Generator: Adobe Illustrator 17.1.0, SVG Export Plug-In . SVG Version: 6.00 Build 0)  -->
<!DOCTYPE svg PUBLIC "-//W3C//DTD SVG 1.1//EN" "http://www.w3.org/Graphics/SVG/1.1/DTD/svg11.dtd">
<svg version="1.1" id="Ebene_1" xmlns="http://www.w3.org/2000/svg" xmlns:xlink="http://www.w3.org/1999/xlink" x="0px" y="0px"
	 viewBox="0 0 228.7 391" enable-background="new 0 0 228.7 391" xml:space="preserve">
<g>
	<g>
		<g>
			<path fill="#1D1D1B" d="M38.7,390.9c-1.6,0.4-3.1-0.5-3.6-2c-0.2-0.5-0.3-1.1-0.5-1.7c-0.3-1.1-0.8-2.7-1.3-4.6H23.1
				c-0.5,1.9-1,3.4-1.3,4.6c-0.2,0.7-0.3,1.3-0.5,1.7c-0.4,1.5-1.9,2.4-3.6,2c-1.5-0.4-2.4-1.9-2-3.6l9.7-35
				c0.3-1.3,1.4-2.1,2.8-2.1s2.5,0.8,2.8,2.1l9.7,35C41.1,389,40.2,390.5,38.7,390.9z M28.3,364c-1.1,3.9-2.4,8.6-3.5,12.7h7
				C30.6,372.6,29.4,368,28.3,364z"/>
			<path fill="#1D1D1B" d="M42,364.2c0-1.5,1.2-2.7,2.7-2.7h2.1V358c0-4.8,3.9-8.7,8.7-8.7c1.5,0,2.7,1.2,2.7,2.7
				c0,1.5-1.2,2.7-2.7,2.7c-1.9,0-3.3,1.4-3.3,3.3v3.6h3.3c1.5,0,2.7,1.2,2.7,2.7s-1.2,2.7-2.7,2.7h-3.3v21.2c0,1.5-1.2,2.7-2.7,2.7
				c-1.5,0-2.7-1.2-2.7-2.7v-21.2h-2.1C43.2,366.9,42,365.7,42,364.2z"/>
			<path fill="#1D1D1B" d="M61.7,382.1V370c0-4.8,3.9-8.8,8.7-8.8s8.7,3.9,8.7,8.8v6c0,1.5-1.2,2.7-2.7,2.7h-9.4v3.3
				c0,1.4,0.8,2.5,2.1,3.1c1.3,0.5,2.7,0.2,3.6-0.7c0.5-0.5,1.1-0.8,1.9-0.8c0.8,0,1.4,0.3,2,0.8s0.8,1.2,0.8,1.9s-0.2,1.4-0.8,1.9
				c-2.6,2.5-6.2,3.3-9.5,1.9C63.8,388.8,61.7,385.7,61.7,382.1z M67.2,370v3.3h6.6V370c0-1.9-1.4-3.3-3.3-3.3
				C68.6,366.7,67.2,368.1,67.2,370z"/>
			<path fill="#1D1D1B" d="M83.9,382.1V370c0-4.8,3.9-8.8,8.7-8.8c4.8,0,8.7,3.9,8.7,8.8v6c0,1.5-1.2,2.7-2.7,2.7h-9.4v3.3
				c0,1.4,0.8,2.5,2.1,3.1c1.3,0.5,2.7,0.2,3.6-0.7c0.5-0.5,1.1-0.8,1.9-0.8c0.8,0,1.4,0.3,2,0.8s0.8,1.2,0.8,1.9s-0.2,1.4-0.8,1.9
				c-2.6,2.5-6.2,3.3-9.5,1.9C86,388.8,83.9,385.7,83.9,382.1z M89.4,370v3.3H96V370c0-1.9-1.4-3.3-3.3-3.3
				C90.8,366.7,89.4,368.1,89.4,370z"/>
			<path fill="#1D1D1B" d="M104.2,364.2c0-1.5,1.2-2.7,2.7-2.7h2.1V358c0-4.8,3.9-8.7,8.7-8.7c1.5,0,2.7,1.2,2.7,2.7
				c0,1.5-1.2,2.7-2.7,2.7c-1.9,0-3.3,1.4-3.3,3.3v3.6h3.3c1.5,0,2.7,1.2,2.7,2.7s-1.2,2.7-2.7,2.7h-3.3v21.2c0,1.5-1.2,2.7-2.7,2.7
				c-1.5,0-2.7-1.2-2.7-2.7v-21.2h-2.1C105.4,366.9,104.2,365.7,104.2,364.2z"/>
			<path fill="#1D1D1B" d="M134.4,369.9c0-1.3-0.8-2.5-2-3s-2.6-0.2-3.5,0.7c-0.5,0.5-1.1,0.8-1.9,0.8c-0.7,0-1.3-0.2-1.9-0.8
				s-0.8-1.2-0.8-1.9c0-0.7,0.3-1.4,0.8-1.9c2.5-2.5,6.2-3.3,9.4-1.9c3.3,1.4,5.4,4.4,5.4,8v18c0,1.5-1.2,2.7-2.7,2.7h-6
				c-4.8,0-8.7-3.9-8.7-8.7s3.9-8.7,8.7-8.7h3.3L134.4,369.9L134.4,369.9z M127.7,381.8c0,1.9,1.4,3.3,3.3,3.3h3.3v-6.6h-3.3
				C129.2,378.5,127.7,380,127.7,381.8z"/>
		</g>
		<g>
			<path fill="#1D1D1B" d="M148.4,385.8c1,0,1.8,0.8,1.8,1.8s-0.8,1.8-1.8,1.8c-1,0-1.8-0.8-1.8-1.8S147.5,385.8,148.4,385.8z"/>
			<path fill="#1D1D1B" d="M158.4,381.8v-11.6c0-3.9,3.3-7.1,7.1-7.1h4.9v-11.2c0-0.7,0.4-1.1,1.1-1.1s1.1,0.4,1.1,1.1v36
				c0,0.7-0.4,1.1-1.1,1.1h-6C161.7,389,158.4,385.7,158.4,381.8z M160.6,370.3v11.6c0,2.7,2.2,4.9,4.9,4.9h4.9v-21.5h-4.9
				C162.9,365.3,160.6,367.5,160.6,370.3z"/>
			<path fill="#1D1D1B" d="M181.9,382.1V370c0-3.9,3.3-7.1,7.1-7.1s7.1,3.3,7.1,7.1v6c0,0.7-0.4,1.1-1.1,1.1h-11v4.9
				c0,2,1.2,3.8,3.1,4.6c1.9,0.8,3.9,0.4,5.4-1.1c0.2-0.2,0.4-0.3,0.7-0.3s0.6,0.1,0.8,0.3c0.2,0.2,0.3,0.5,0.3,0.8
				s-0.1,0.5-0.3,0.7c-2,2.1-5.1,2.7-7.7,1.6C183.6,387.5,181.9,385,181.9,382.1z M184,370v4.9h9.9V370c0-2.7-2.2-4.9-4.9-4.9
				S184,367.3,184,370z"/>
		</g>
	</g>
</g>
<g>
	<polygon fill="#966C6C" points="8.6,208 0,73.4 0,154.6 	"/>
	<polygon fill="#360A21" points="0,73.4 27,16.7 8,118.5 0,154.6 	"/>
	<polygon fill="#1A1515" points="203.2,208 228.7,106.9 211.8,154.6 	"/>
	<polygon fill="#F4E7A8" points="77.1,179.8 88.9,179.8 69.3,266.2 30.7,172.4 34.8,176.5 40.6,181.8 53.1,184.1 	"/>
	<polygon fill="#CC8692" points="105.9,50.1 33.9,66.3 8,118.5 0,154.6 	"/>
	<polygon fill="#FFFFFF" points="77.1,179.8 66,170.5 47.9,168.5 34.8,176.5 40.6,181.8 53.1,184.1 	"/>
	<path fill="#A0A77A" d="M63.9,173.7c0,4.7-3.8,8.4-8.4,8.4c-4.7,0-8.4-3.8-8.4-8.4c0-4.7,3.8-8.4,8.4-8.4S63.9,169,63.9,173.7"/>
	<path d="M58.9,172.8c0,1.8-1.4,3.2-3.2,3.2c-1.8,0-3.2-1.4-3.2-3.2s1.4-3.2,3.2-3.2C57.5,169.7,58.9,171.1,58.9,172.8"/>
	<path fill="#FFFFFF" d="M57.4,172.7c0,0.5-0.4,0.9-0.9,0.9c-0.5,0-0.9-0.4-0.9-0.9c0-0.5,0.4-0.9,0.9-0.9
		C57,171.8,57.4,172.2,57.4,172.7"/>
	<polygon fill="#4C3F05" points="66.9,164.8 77.1,179.8 66,170.5 	"/>
	<polygon fill="#39310A" points="66,170.5 47.9,168.5 45.5,161.1 66.9,164.8 	"/>
	<polygon fill="#DDAEB7" points="105.9,50.1 105.9,163.8 79.2,152.8 36.3,145.3 0,154.6 	"/>
	<polygon fill="#261F20" points="16.7,150.3 36.3,145.3 79.2,152.8 74.7,142.1 39,138.1 	"/>
	<polygon fill="#4E3F42" points="34.8,176.5 39.7,182.4 53.4,185.1 77.1,179.8 53.1,184.1 40.6,181.8 	"/>
	<polygon points="34.8,176.5 47.9,169 66,170.7 77.1,179.8 66,170.5 47.9,168.5 	"/>
	<polygon fill="#DE8138" points="24.1,263.2 47.9,290.6 89.3,318.5 69.3,266.2 	"/>
	<polygon fill="#E4C326" points="0,154.6 8.6,208 30.7,172.4 	"/>
	<polygon fill="#E59A60" points="69.3,266.2 24.1,263.2 8.6,208 33.4,252.1 	"/>
	<polygon fill="#EBB388" points="89.3,318.5 105.9,320 105.9,291.3 88.5,290 69.3,266.2 	"/>
	<polygon fill="#E9CF51" points="30.7,172.4 69.3,266.2 33.4,252.1 8.6,208 	"/>
	<polygon fill="#925550" points="105.9,239.6 87.4,239.6 76.5,234.7 	"/>
	<polygon fill="#EFDB7D" points="87.4,239.6 97.7,252.2 69.3,266.2 76.5,234.7 	"/>
	<polygon fill="#CDCBB2" points="105.9,239.6 105.9,255.1 97.7,252.2 	"/>
	<polygon fill="#ADA753" points="97.7,252.2 87.4,239.6 105.9,239.6 	"/>
	<polygon fill="#DEDCBA" points="105.9,163.8 94.1,217.7 105.9,224.4 	"/>
	<polygon fill="#D8AFAC" points="69.3,266.2 88.5,290 105.9,291.3 105.9,283.3 89.3,283.1 	"/>
	<polygon fill="#9E3830" points="105.9,283.3 105.9,271.2 69.3,266.2 	"/>
	<polygon fill="#ECD7D6" points="105.9,283.3 69.3,266.2 89.3,283.1 	"/>
	<polygon fill="#ECD7D6" points="105.9,255.1 97.7,252.2 69.3,266.2 94.1,261.7 105.9,263.1 	"/>
	<polygon fill="#772A24" points="105.9,267.5 69.3,266.2 94.1,261.7 105.9,263.1 	"/>
	<polygon fill="#4F1C18" points="105.9,267.5 69.3,266.2 105.9,271.2 	"/>
	<polygon fill="#AB921D" points="36.3,145.3 0,154.6 30.7,172.4 	"/>
	<polygon fill="#E4C326" points="30.7,172.4 45.5,161.1 36.3,145.3 	"/>
	<polygon fill="#E9CF51" points="45.5,161.1 66.9,164.8 79.2,152.8 36.3,145.3 	"/>
	<polygon fill="#827D3E" points="88.9,179.8 94.1,217.7 76.5,234.7 	"/>
	<polygon fill="#CECA98" points="88.9,179.8 105.9,163.8 94.1,217.7 	"/>
	<polygon fill="#D69EA8" points="105.9,163.8 79.2,152.8 88.9,179.8 	"/>
	<polygon fill="#EFDB7D" points="77.1,179.8 88.9,179.8 79.2,152.8 66.9,164.8 	"/>
	<polygon fill="#726213" points="47.9,168.5 45.5,161.1 30.7,172.4 34.8,176.5 	"/>
	<polygon fill="#8E7746" points="105.9,239.6 96,232 87.4,236.4 	"/>
	<polygon fill="#C0BEA8" points="94.1,217.7 96,232 105.9,239.6 105.9,224.4 	"/>
	<polygon fill="#BDB975" points="94.1,217.7 96,232 87.4,236.4 76.5,234.7 	"/>
	<polygon fill="#733B7C" points="105.9,50.1 33.9,66.3 27,16.7 105.9,0 	"/>
	<polygon fill="#492144" points="27,16.7 8,118.5 33.9,66.3 	"/>
	<polygon fill="#D5E8E9" points="134.7,179.8 123,179.8 142.5,266.2 181.2,172.4 177,176.5 171.2,181.8 158.8,184.1 	"/>
	<polygon fill="#D8AFAC" points="105.9,50.1 177.9,66.3 203.8,118.5 211.8,154.6 	"/>
	<polygon fill="#FFFFFF" points="134.7,179.8 145.8,170.5 163.9,168.5 177,176.5 171.2,181.8 158.8,184.1 	"/>
	<path fill="#5B6A69" d="M147.9,173.7c0,4.7,3.8,8.4,8.4,8.4c4.7,0,8.4-3.8,8.4-8.4c0-4.7-3.8-8.4-8.4-8.4
		C151.7,165.2,147.9,169,147.9,173.7"/>
	<path d="M152.9,172.8c0,1.8,1.4,3.2,3.2,3.2c1.8,0,3.2-1.4,3.2-3.2s-1.4-3.2-3.2-3.2C154.3,169.7,152.9,171.1,152.9,172.8"/>
	<path fill="#FFFFFF" d="M154.4,172.7c0,0.5,0.4,0.9,0.9,0.9s0.9-0.4,0.9-0.9c0-0.5-0.4-0.9-0.9-0.9S154.4,172.2,154.4,172.7"/>
	<polygon fill="#103637" points="144.9,164.8 134.7,179.8 145.8,170.5 	"/>
	<polygon fill="#185053" points="145.8,170.5 163.9,168.5 166.3,161.1 144.9,164.8 	"/>
	<polygon fill="#ECD7D6" points="105.9,50.1 105.9,163.8 132.7,152.8 175.5,145.3 211.8,154.6 	"/>
	<polygon fill="#301E1F" points="195.1,150.3 175.5,145.3 132.7,152.8 137.1,142.1 172.8,138.1 	"/>
	<polygon fill="#4E3F42" points="177,176.5 172.1,182.4 158.5,185.1 134.7,179.8 158.8,184.1 171.2,181.8 	"/>
	<polygon points="177,176.5 163.9,169 145.8,170.7 134.7,179.8 145.8,170.5 163.9,168.5 	"/>
	<polygon fill="#5779A1" points="187.7,263.2 163.9,290.6 122.6,318.5 142.5,266.2 	"/>
	<polygon fill="#206B6E" points="211.8,154.6 203.2,208 181.2,172.4 	"/>
	<polygon fill="#819AB9" points="142.5,266.2 187.7,263.2 203.2,208 178.4,252.1 	"/>
	<polygon fill="#ABBCD0" points="122.6,318.5 105.9,320 105.9,291.3 123.3,290 142.5,266.2 	"/>
	<polygon fill="#AAD2D4" points="181.2,172.4 142.5,266.2 178.4,252.1 203.2,208 	"/>
	<polygon fill="#C57570" points="105.9,239.6 124.4,239.6 135.4,234.7 	"/>
	<polygon fill="#BBDBDD" points="124.4,239.6 114.1,252.2 142.5,266.2 135.4,234.7 	"/>
	<polygon fill="#D2E1E2" points="105.9,239.6 105.9,255.1 114.1,252.2 	"/>
	<polygon fill="#DDEDEE" points="114.1,252.2 124.4,239.6 105.9,239.6 	"/>
	<polygon fill="#D2E1E2" points="105.9,163.8 117.7,217.7 105.9,224.4 	"/>
	<polygon fill="#BAA2A0" points="142.5,266.2 123.3,290 105.9,291.3 105.9,283.3 122.6,283.1 	"/>
	<polygon fill="#744440" points="105.9,283.3 105.9,271.2 142.5,266.2 	"/>
	<polygon fill="#DCD0CF" points="105.9,283.3 142.5,266.2 122.6,283.1 	"/>
	<polygon fill="#BAA2A0" points="105.9,255.1 114.1,252.2 142.5,266.2 117.7,261.7 105.9,263.1 	"/>
	<polygon fill="#521511" points="105.9,267.5 142.5,266.2 117.7,261.7 105.9,263.1 	"/>
	<polygon fill="#3D100C" points="105.9,267.5 142.5,266.2 105.9,271.2 	"/>
	<polygon fill="#2B8E93" points="175.5,145.3 211.8,154.6 181.2,172.4 	"/>
	<polygon fill="#80BBBE" points="181.2,172.4 166.3,161.1 175.5,145.3 	"/>
	<polygon fill="#AAD2D4" points="166.3,161.1 144.9,164.8 132.7,152.8 175.5,145.3 	"/>
	<polygon fill="#9CCAD6" points="123,179.8 117.7,217.7 135.4,234.7 	"/>
	<polygon fill="#D3F0F1" points="123,179.8 105.9,163.8 117.7,217.7 	"/>
	<polygon fill="#CFDADA" points="105.9,163.8 132.7,152.8 123,179.8 	"/>
	<polygon fill="#D5E8E9" points="134.7,179.8 123,179.8 132.7,152.8 144.9,164.8 	"/>
	<polygon fill="#79A6A8" points="163.9,168.5 166.3,161.1 181.2,172.4 177,176.5 	"/>
	<polygon fill="#468E8C" points="105.9,239.6 115.8,232 124.4,236.4 	"/>
	<polygon fill="#A6C4C5" points="117.7,217.7 115.8,232 105.9,239.6 105.9,224.4 	"/>
	<polygon fill="#A6C4C5" points="117.7,217.7 115.8,232 124.4,236.4 135.4,234.7 	"/>
	<polygon fill="#C07FBD" points="105.9,50.1 177.9,66.3 184.8,16.7 105.9,0 	"/>
	<polygon fill="#9E3830" points="184.8,16.7 203.8,118.5 177.9,66.3 	"/>
	<polygon fill="#692620" points="228.7,106.9 184.8,16.7 203.8,118.5 211.8,154.6 	"/>
</g>
</svg>
