<?xml version="1.0" encoding="utf-8"?>
<!-- Generator: Adobe Illustrator 16.0.3, SVG Export Plug-In . SVG Version: 6.00 Build 0)  -->
<!DOCTYPE svg PUBLIC "-//W3C//DTD SVG 1.1//EN" "http://www.w3.org/Graphics/SVG/1.1/DTD/svg11.dtd">
<svg version="1.1" id="Ebene_1" xmlns="http://www.w3.org/2000/svg" xmlns:xlink="http://www.w3.org/1999/xlink" x="0px" y="0px"
	 width="228.658px" height="391px" viewBox="0 0 228.658 391" enable-background="new 0 0 228.658 391" xml:space="preserve">
<g>
	<g>
		<g>
			<path fill="#FCFFF3" d="M38.7,390.896c-1.629,0.422-3.137-0.482-3.56-1.992c-0.181-0.482-0.302-1.086-0.483-1.748
				c-0.301-1.146-0.783-2.717-1.267-4.586H23.134c-0.543,1.869-0.965,3.439-1.267,4.586c-0.181,0.662-0.302,1.266-0.483,1.748
				c-0.422,1.51-1.93,2.414-3.559,1.992c-1.509-0.422-2.414-1.932-1.991-3.561l9.653-34.992c0.301-1.268,1.388-2.113,2.775-2.113
				c1.387,0,2.474,0.846,2.775,2.113l9.652,34.992C41.113,388.965,40.208,390.475,38.7,390.896z M28.263,364.047
				c-1.146,3.922-2.354,8.568-3.5,12.73h6.999C30.615,372.615,29.409,367.969,28.263,364.047z"/>
			<path fill="#FCFFF3" d="M41.956,364.229c0-1.508,1.206-2.715,2.715-2.715h2.111v-3.561c0-4.826,3.922-8.748,8.748-8.748
				c1.509,0,2.715,1.207,2.715,2.715c0,1.51-1.206,2.717-2.715,2.717c-1.87,0-3.318,1.447-3.318,3.316v3.561h3.318
				c1.509,0,2.715,1.207,2.715,2.715s-1.206,2.715-2.715,2.715h-3.318v21.178c0,1.508-1.206,2.715-2.715,2.715
				c-1.508,0-2.715-1.207-2.715-2.715v-21.178h-2.111C43.162,366.943,41.956,365.736,41.956,364.229z"/>
			<path fill="#FCFFF3" d="M61.743,382.088v-12.066c0-4.828,3.922-8.75,8.748-8.75s8.748,3.922,8.748,8.75v6.033
				c0,1.508-1.207,2.715-2.715,2.715h-9.352v3.318c0,1.387,0.784,2.533,2.051,3.076c1.268,0.482,2.655,0.242,3.621-0.725
				c0.543-0.543,1.146-0.844,1.869-0.844c0.785,0,1.449,0.301,1.992,0.844s0.783,1.207,0.783,1.932s-0.24,1.387-0.783,1.93
				c-2.596,2.475-6.215,3.26-9.533,1.871C63.794,388.785,61.743,385.707,61.743,382.088z M67.173,370.021v3.318h6.637v-3.318
				c0-1.871-1.448-3.318-3.318-3.318C68.62,366.703,67.173,368.15,67.173,370.021z"/>
			<path fill="#FCFFF3" d="M83.943,382.088v-12.066c0-4.828,3.922-8.75,8.749-8.75c4.826,0,8.748,3.922,8.748,8.75v6.033
				c0,1.508-1.207,2.715-2.715,2.715h-9.352v3.318c0,1.387,0.783,2.533,2.051,3.076c1.268,0.482,2.654,0.242,3.62-0.725
				c0.543-0.543,1.146-0.844,1.87-0.844c0.784,0,1.448,0.301,1.991,0.844s0.784,1.207,0.784,1.932s-0.241,1.387-0.784,1.93
				c-2.595,2.475-6.214,3.26-9.532,1.871C85.995,388.785,83.943,385.707,83.943,382.088z M89.374,370.021v3.318h6.637v-3.318
				c0-1.871-1.449-3.318-3.318-3.318C90.821,366.703,89.374,368.15,89.374,370.021z"/>
			<path fill="#FCFFF3" d="M104.214,364.229c0-1.508,1.206-2.715,2.715-2.715h2.111v-3.561c0-4.826,3.922-8.748,8.748-8.748
				c1.508,0,2.715,1.207,2.715,2.715c0,1.51-1.207,2.717-2.715,2.717c-1.87,0-3.318,1.447-3.318,3.316v3.561h3.318
				c1.508,0,2.715,1.207,2.715,2.715s-1.207,2.715-2.715,2.715h-3.318v21.178c0,1.508-1.206,2.715-2.715,2.715
				c-1.508,0-2.715-1.207-2.715-2.715v-21.178h-2.111C105.42,366.943,104.214,365.736,104.214,364.229z"/>
			<path fill="#FCFFF3" d="M134.378,369.9c0-1.268-0.783-2.475-1.99-2.957s-2.594-0.24-3.5,0.725
				c-0.543,0.543-1.146,0.783-1.93,0.783c-0.725,0-1.328-0.24-1.871-0.783s-0.844-1.207-0.844-1.932c0-0.723,0.301-1.387,0.844-1.93
				c2.475-2.475,6.154-3.258,9.352-1.871c3.318,1.389,5.369,4.404,5.369,7.965v17.979c0,1.51-1.205,2.715-2.715,2.715h-6.033
				c-4.826,0-8.748-3.922-8.748-8.748s3.922-8.748,8.748-8.748h3.318V369.9z M127.741,381.846c0,1.871,1.449,3.318,3.318,3.318
				h3.318v-6.637h-3.318C129.19,378.527,127.741,379.977,127.741,381.846z"/>
		</g>
		<g>
			<path fill="#FCFFF3" d="M148.437,385.768c0.967,0,1.75,0.785,1.75,1.75s-0.783,1.75-1.75,1.75c-0.965,0-1.75-0.785-1.75-1.75
				S147.472,385.768,148.437,385.768z"/>
			<path fill="#FCFFF3" d="M158.45,381.846v-11.584c0-3.861,3.258-7.119,7.119-7.119h4.947V351.92c0-0.662,0.422-1.086,1.086-1.086
				s1.086,0.424,1.086,1.086v35.959c0,0.664-0.422,1.086-1.086,1.086h-6.033C161.708,388.965,158.45,385.707,158.45,381.846z
				 M160.622,370.262v11.584c0,2.715,2.232,4.947,4.947,4.947h4.947v-21.479h-4.947
				C162.854,365.314,160.622,367.547,160.622,370.262z"/>
			<path fill="#FCFFF3" d="M181.858,382.088v-12.066c0-3.861,3.258-7.119,7.119-7.119s7.119,3.258,7.119,7.119v6.033
				c0,0.662-0.422,1.086-1.086,1.086h-10.98v4.947c0,1.99,1.205,3.801,3.076,4.584c1.871,0.785,3.922,0.363,5.369-1.086
				c0.182-0.18,0.424-0.301,0.725-0.301s0.604,0.121,0.785,0.301c0.18,0.182,0.301,0.484,0.301,0.785s-0.121,0.543-0.301,0.725
				c-1.992,2.111-5.068,2.715-7.723,1.568C183.606,387.518,181.858,384.982,181.858,382.088z M184.03,370.021v4.947h9.895v-4.947
				c0-2.715-2.232-4.947-4.947-4.947S184.03,367.307,184.03,370.021z"/>
		</g>
	</g>
</g>
<g>
	<polygon fill="#966C6C" points="8.585,208.033 0.001,73.393 0.001,154.631 	"/>
	<polygon fill="#360A21" points="0.001,73.393 26.979,16.723 8.027,118.51 0.001,154.631 	"/>
	<polygon fill="#1A1515" points="203.24,208.033 228.658,106.936 211.822,154.631 	"/>
	<polygon fill="#F4E7A8" points="77.147,179.827 88.854,179.827 69.345,266.246 30.66,172.357 34.782,176.483 40.581,181.834 
		53.067,184.063 	"/>
	<polygon fill="#CC8692" points="105.913,50.1 33.892,66.334 8.027,118.51 0.001,154.631 	"/>
	<polygon fill="#FFFFFF" points="77.147,179.827 66,170.462 47.93,168.455 34.782,176.483 40.581,181.834 53.067,184.063 	"/>
	<path fill="#A0A77A" d="M63.937,173.667c0,4.664-3.779,8.444-8.444,8.444c-4.664,0-8.446-3.78-8.446-8.444
		c0-4.663,3.782-8.444,8.446-8.444C60.157,165.223,63.937,169.004,63.937,173.667"/>
	<path d="M58.921,172.831c0,1.755-1.423,3.179-3.178,3.179c-1.756,0-3.177-1.424-3.177-3.179s1.421-3.178,3.177-3.178
		C57.498,169.653,58.921,171.076,58.921,172.831"/>
	<path fill="#FFFFFF" d="M57.415,172.747c0,0.507-0.41,0.92-0.918,0.92c-0.51,0-0.922-0.413-0.922-0.92s0.412-0.92,0.922-0.92
		C57.005,171.827,57.415,172.24,57.415,172.747"/>
	<polygon fill="#4C3F05" points="66.89,164.776 77.147,179.827 65.999,170.463 	"/>
	<polygon fill="#39310A" points="65.999,170.462 47.931,168.455 45.485,161.098 66.891,164.775 	"/>
	<polygon fill="#DDAEB7" points="105.913,50.1 105.913,163.773 79.154,152.847 36.345,145.266 0.001,154.631 	"/>
	<polygon fill="#261F20" points="16.704,150.326 36.345,145.266 79.154,152.848 74.695,142.145 39.019,138.131 	"/>
	<polygon fill="#4E3F42" points="34.782,176.483 39.729,182.446 53.359,185.08 77.147,179.828 53.066,184.063 40.581,181.834 	"/>
	<polygon points="34.782,176.483 47.946,168.996 65.984,170.699 77.147,179.828 65.999,170.463 47.93,168.455 	"/>
	<polygon fill="#DE8138" points="24.081,263.219 47.931,290.645 89.271,318.488 69.346,266.246 	"/>
	<polygon fill="#E4C326" points="0.001,154.631 8.585,208.033 30.659,172.357 	"/>
	<polygon fill="#E59A60" points="69.345,266.246 24.081,263.219 8.584,208.033 33.447,252.07 	"/>
	<polygon fill="#EBB388" points="89.272,318.488 105.913,319.985 105.913,291.313 88.521,289.976 69.345,266.246 	"/>
	<polygon fill="#E9CF51" points="30.659,172.357 69.346,266.246 33.446,252.07 8.585,208.033 	"/>
	<polygon fill="#925550" points="105.913,239.639 87.405,239.639 76.471,234.679 	"/>
	<polygon fill="#EFDB7D" points="87.405,239.639 97.719,252.182 69.345,266.246 76.471,234.679 	"/>
	<polygon fill="#CDCBB2" points="105.913,239.639 105.913,255.107 97.719,252.182 	"/>
	<polygon fill="#ADA753" points="97.718,252.182 87.405,239.639 105.912,239.639 	"/>
	<polygon fill="#DEDCBA" points="105.913,163.773 94.097,217.732 105.913,224.421 	"/>
	<polygon fill="#D8AFAC" points="69.345,266.246 88.521,289.975 105.912,291.313 105.912,283.286 89.272,283.063 	"/>
	<polygon fill="#9E3830" points="105.913,283.286 105.913,271.246 69.346,266.246 	"/>
	<polygon fill="#ECD7D6" points="105.913,283.286 69.346,266.246 89.271,283.063 	"/>
	<polygon fill="#ECD7D6" points="105.913,255.107 97.719,252.182 69.346,266.246 94.097,261.714 105.913,263.131 	"/>
	<polygon fill="#772A24" points="105.913,267.455 69.346,266.246 94.097,261.714 105.913,263.131 	"/>
	<polygon fill="#4F1C18" points="105.913,267.455 69.346,266.246 105.913,271.246 	"/>
	<polygon fill="#AB921D" points="36.345,145.266 0,154.631 30.659,172.357 	"/>
	<polygon fill="#E4C326" points="30.659,172.357 45.485,161.098 36.345,145.266 	"/>
	<polygon fill="#E9CF51" points="45.485,161.098 66.89,164.777 79.155,152.847 36.344,145.266 	"/>
	<polygon fill="#827D3E" points="88.854,179.827 94.096,217.732 76.471,234.679 	"/>
	<polygon fill="#CECA98" points="88.854,179.827 105.913,163.773 94.096,217.732 	"/>
	<polygon fill="#D69EA8" points="105.913,163.773 79.154,152.847 88.854,179.828 	"/>
	<polygon fill="#EFDB7D" points="77.147,179.827 88.854,179.827 79.155,152.848 66.89,164.776 	"/>
	<polygon fill="#726213" points="47.931,168.455 45.486,161.098 30.659,172.357 34.783,176.482 	"/>
	<polygon fill="#8E7746" points="105.913,239.639 95.99,232.002 87.405,236.447 	"/>
	<polygon fill="#C0BEA8" points="94.097,217.732 95.991,232.003 105.912,239.639 105.912,224.421 	"/>
	<polygon fill="#BDB975" points="94.097,217.732 95.991,232.003 87.406,236.447 76.471,234.679 	"/>
	<polygon fill="#733B7C" points="105.913,50.1 33.892,66.334 26.979,16.723 105.913,0 	"/>
	<polygon fill="#492144" points="26.979,16.723 8.028,118.51 33.892,66.334 	"/>
	<polygon fill="#D5E8E9" points="134.676,179.827 122.969,179.827 142.479,266.246 181.164,172.357 177.04,176.483 171.241,181.834 
		158.755,184.063 	"/>
	<polygon fill="#D8AFAC" points="105.913,50.1 177.932,66.334 203.798,118.51 211.822,154.631 	"/>
	<polygon fill="#FFFFFF" points="134.676,179.827 145.824,170.462 163.895,168.455 177.04,176.483 171.241,181.834 158.755,184.063 
			"/>
	<path fill="#5B6A69" d="M147.887,173.667c0,4.664,3.78,8.444,8.444,8.444c4.665,0,8.446-3.78,8.446-8.444
		c0-4.663-3.781-8.444-8.446-8.444C151.667,165.223,147.887,169.004,147.887,173.667"/>
	<path d="M152.902,172.831c0,1.755,1.424,3.179,3.179,3.179c1.754,0,3.176-1.424,3.176-3.179s-1.422-3.178-3.176-3.178
		C154.326,169.653,152.902,171.076,152.902,172.831"/>
	<path fill="#FFFFFF" d="M154.408,172.747c0,0.507,0.411,0.92,0.92,0.92s0.92-0.413,0.92-0.92s-0.411-0.92-0.92-0.92
		S154.408,172.24,154.408,172.747"/>
	<polygon fill="#103637" points="144.932,164.776 134.676,179.827 145.825,170.463 	"/>
	<polygon fill="#185053" points="145.824,170.462 163.894,168.455 166.338,161.098 144.932,164.775 	"/>
	<polygon fill="#ECD7D6" points="105.913,50.1 105.913,163.773 132.67,152.847 175.479,145.266 211.822,154.631 	"/>
	<polygon fill="#301E1F" points="195.117,150.326 175.479,145.266 132.67,152.848 137.128,142.145 172.804,138.131 	"/>
	<polygon fill="#4E3F42" points="177.041,176.483 172.093,182.446 158.464,185.08 134.677,179.828 158.756,184.063 171.241,181.834 
			"/>
	<polygon points="177.041,176.483 163.879,168.996 145.839,170.699 134.677,179.828 145.824,170.463 163.895,168.455 	"/>
	<polygon fill="#5779A1" points="187.744,263.219 163.894,290.645 122.552,318.488 142.479,266.246 	"/>
	<polygon fill="#206B6E" points="211.822,154.631 203.24,208.033 181.165,172.357 	"/>
	<polygon fill="#819AB9" points="142.479,266.246 187.744,263.219 203.24,208.033 178.378,252.07 	"/>
	<polygon fill="#ABBCD0" points="122.551,318.488 105.912,319.985 105.912,291.313 123.305,289.976 142.479,266.246 	"/>
	<polygon fill="#AAD2D4" points="181.164,172.357 142.479,266.246 178.379,252.07 203.239,208.033 	"/>
	<polygon fill="#C57570" points="105.913,239.639 124.419,239.639 135.354,234.679 	"/>
	<polygon fill="#BBDBDD" points="124.418,239.639 114.105,252.182 142.479,266.246 135.354,234.679 	"/>
	<polygon fill="#D2E1E2" points="105.913,239.639 105.913,255.107 114.105,252.182 	"/>
	<polygon fill="#DDEDEE" points="114.106,252.182 124.419,239.639 105.913,239.639 	"/>
	<polygon fill="#D2E1E2" points="105.913,163.773 117.729,217.732 105.913,224.421 	"/>
	<polygon fill="#BAA2A0" points="142.479,266.246 123.304,289.975 105.913,291.313 105.913,283.286 122.551,283.063 	"/>
	<polygon fill="#744440" points="105.913,283.286 105.913,271.246 142.479,266.246 	"/>
	<polygon fill="#DCD0CF" points="105.913,283.286 142.479,266.246 122.552,283.063 	"/>
	<polygon fill="#BAA2A0" points="105.913,255.107 114.105,252.182 142.479,266.246 117.729,261.714 105.913,263.131 	"/>
	<polygon fill="#521511" points="105.913,267.455 142.479,266.246 117.729,261.714 105.913,263.131 	"/>
	<polygon fill="#3D100C" points="105.913,267.455 142.479,266.246 105.913,271.246 	"/>
	<polygon fill="#2B8E93" points="175.48,145.266 211.823,154.631 181.165,172.357 	"/>
	<polygon fill="#80BBBE" points="181.164,172.357 166.338,161.098 175.479,145.266 	"/>
	<polygon fill="#AAD2D4" points="166.338,161.098 144.933,164.777 132.669,152.847 175.48,145.266 	"/>
	<polygon fill="#9CCAD6" points="122.969,179.827 117.729,217.732 135.353,234.679 	"/>
	<polygon fill="#D3F0F1" points="122.969,179.827 105.912,163.773 117.729,217.732 	"/>
	<polygon fill="#CFDADA" points="105.913,163.773 132.67,152.847 122.97,179.828 	"/>
	<polygon fill="#D5E8E9" points="134.676,179.827 122.969,179.827 132.669,152.848 144.933,164.776 	"/>
	<polygon fill="#79A6A8" points="163.895,168.455 166.337,161.098 181.165,172.357 177.04,176.482 	"/>
	<polygon fill="#468E8C" points="105.913,239.639 115.835,232.002 124.419,236.447 	"/>
	<polygon fill="#A6C4C5" points="117.729,217.732 115.834,232.003 105.913,239.639 105.913,224.421 	"/>
	<polygon fill="#A6C4C5" points="117.729,217.732 115.834,232.003 124.418,236.447 135.353,234.679 	"/>
	<polygon fill="#C07FBD" points="105.913,50.1 177.932,66.334 184.844,16.723 105.913,0 	"/>
	<polygon fill="#9E3830" points="184.844,16.723 203.797,118.51 177.932,66.334 	"/>
	<polygon fill="#692620" points="228.658,106.937 184.844,16.723 203.798,118.51 211.822,154.631 	"/>
</g>
</svg>
